<?xml version="1.0" encoding="utf-8"?>
<svg version="1.1"
    xmlns="http://www.w3.org/2000/svg" fill="rgb(68, 68, 68)"
    xmlns:xlink="http://www.w3.org/1999/xlink" x="0px" y="0px" viewBox="0 0 489 384" xml:space="preserve">
    <g id="outlined_car">
        <g>
            <path fill="#f7f7f7" d="M355.3,196.7l-5.1-1.8c-14.9-5.3-31.4,2.5-36.7,17.3c-2.4,6.7,1.1,14.2,7.8,16.6l10.7,3.8 c11.9,4.3,25.2-2,29.4-13.9l1.8-5.1C365.8,206.8,362.2,199.2,355.3,196.7z"/>
            <path fill="#f7f7f7" d="M182,212.2c-5.3-14.9-21.8-22.6-36.7-17.3l-5.1,1.8c-6.9,2.5-10.4,10.1-8,16.9l1.8,5.1 c4.3,11.9,17.5,18.2,29.4,13.9l10.7-3.8C180.9,226.4,184.4,219,182,212.2L182,212.2z"/>
            <path fill="#f7f7f7" d="M283.4,112.3h-71.4c-27.2,0-45.3,22.1-45.3,49.3h159.3C326.1,134.4,310.7,112.3,283.4,112.3z"/>
            <path fill="#f7f7f7" d="M-25-21.3v434h550.7v-434H-25z M403.4,149.3c0,11.4-7.5,21.1-17.8,24.5c6,5.1,9.8,12.6,9.8,21.1v37.6 c0,8.8-4.2,16.7-10.7,21.7v37.3c0,9.9-8.1,17.9-17.9,17.9H344c-9.9,0-17.9-8.1-17.9-17.9V260H166.7v31.4c0,9.9-8.1,17.9-17.9,17.9 H126c-9.9,0-17.9-8.1-17.9-17.9v-37.8c-6.1-5.1-10-12.7-10-21.2v-37.6c0-8,3.4-15.2,8.9-20.2c-12.1-2.1-21.3-12.7-21.3-25.4v0 c0-5,4-9,9-9h38.8v-5.7c0-33,27-60,60-60h105.3c33,0,60,27,60,60v5.7h35.7C399.3,140.3,403.4,144.4,403.4,149.3L403.4,149.3z"/>
        </g>
    </g>
</svg>
