<?xml version="1.0" encoding="utf-8"?>
<svg version="1.1"
    xmlns="http://www.w3.org/2000/svg"
    xmlns:xlink="http://www.w3.org/1999/xlink" x="0px" y="0px" viewBox="0 0 489 384" style="enable-background:new 0 0 489 384;" xml:space="preserve">
    <g id="outlined_radio">
        <g>
            <ellipse transform="matrix(0.9871 -0.1602 0.1602 0.9871 -37.8282 57.3872)" fill="#f7f7f7" cx="337" cy="263.3" rx="19.8" ry="19.8"/>
            <circle fill="#f7f7f7" cx="279.3" cy="263.3" r="19.8"/>
            <ellipse transform="matrix(0.7071 -0.7071 0.7071 0.7071 -105.9898 173.4939)" fill="#f7f7f7" cx="156.4" cy="214.7" rx="68.4" ry="68.4"/>
            <path fill="#f7f7f7" d="M-25-21.3v434h550.7v-434H-25z M438,291.3c0,11-9,20-20,20H71c-11,0-20-9-20-20V138c0-11,9-20,20-20h18 l222-45.3c2.7-0.5,5.3,1.2,5.9,3.9s-1.2,5.3-3.9,5.9l-174,35.5H418c11,0,20,9,20,20V291.3z"/>
            <path fill="#f7f7f7" d="M389.8,159H277.5c-9.9,0-18,8.1-18,18v32.3c0,9.9,8.1,18,18,18h112.2c9.9,0,18-8.1,18-18V177 C407.8,167.1,399.7,159,389.8,159z"/>
        </g>
    </g>
</svg>
