<?xml version="1.0" encoding="utf-8"?>
<svg version="1.1"
    xmlns="http://www.w3.org/2000/svg"
    xmlns:xlink="http://www.w3.org/1999/xlink" x="0px" y="0px" viewBox="0 0 489 384" style="enable-background:new 0 0 489 384;" xml:space="preserve">
    <g id="outlined_web">
        <g>
            <rect x="158.5" y="105" fill="#f7f7f7" width="172" height="115.3"/>
            <path fill="#f7f7f7" d="M-25-21.3v434h550.7v-434H-25z M129.3,98.7c0-11,9-20,20-20H340c11,0,20,9,20,20V247c0,2.2-1.8,4-4,4H133.3 c-2.2,0-4-1.8-4-4V98.7z M386.7,285.3c0,11-9,20-20,20H122.3c-11,0-20-9-20-20V265c0-1.1,0.9-2,2-2h108.5c0,0.4-0.1,0.9-0.1,1.3 c0,7,5.7,12.7,12.7,12.7h33.3c7,0,12.7-5.7,12.7-12.7c0-0.5,0-0.9-0.1-1.3h113.5c1.1,0,2,0.9,2,2V285.3z"/>
        </g>
    </g>
</svg>
